<?xml version="1.0" encoding="iso-8859-1"?>
<!-- Generator: Adobe Illustrator 19.0.0, SVG Export Plug-In . SVG Version: 6.00 Build 0)  -->
<svg version="1.1" id="Capa_1" xmlns="http://www.w3.org/2000/svg" xmlns:xlink="http://www.w3.org/1999/xlink" x="0px" y="0px"
	 viewBox="0 0 512 512" style="enable-background:new 0 0 512 512;" xml:space="preserve">
<path style="fill:#FEA832;" d="M256,269.946c-24.804,0-44.825,20.021-44.825,44.825s20.021,44.825,44.825,44.825
	s44.825-20.021,44.825-44.825S280.804,269.946,256,269.946z"/>
<path style="fill:#FE9923;" d="M300.825,314.77c0,24.804-20.021,44.825-44.825,44.825v-89.65
	C280.804,269.946,300.825,289.966,300.825,314.77z"/>
<path style="fill:#FEDB41;" d="M356.108,274.429c-16.136-16.438-25.4-38.85-25.4-61.56v-17.632
	c0-41.239-33.469-74.708-74.708-74.708s-74.708,33.469-74.708,74.708v17.632c0,22.709-9.264,45.122-25.4,61.56
	c-4.484,4.183-5.678,10.458-3.288,16.136c2.391,5.678,7.77,9.264,13.746,9.264h179.3c5.977,0,11.356-3.586,13.747-9.264
	C361.786,284.887,360.591,278.611,356.108,274.429z"/>
<path style="fill:#FCBF29;" d="M359.397,290.565c-2.392,5.678-7.771,9.264-13.747,9.264H256v-179.3
	c41.239,0,74.708,33.469,74.708,74.708v17.632c0,22.709,9.264,45.122,25.4,61.56C360.591,278.611,361.786,284.887,359.397,290.565z"
	/>
<path style="fill:#32D736;" d="M440.977,428.925C394.658,478.231,328.915,511.004,256,511.004
	c-72.018,0-136.866-31.875-183.184-80.286l82.478-86.961c24.504,28.09,60.365,45.722,100.707,45.722
	c41.838,0,79.192-19.125,103.694-49.009L440.977,428.925z"/>
<g>
	<path style="fill:#10BB67;" d="M440.977,428.925C394.658,478.231,328.915,511.004,256,511.004V389.479
		c41.838,0,79.192-19.125,103.694-49.009L440.977,428.925z"/>
	<path style="fill:#10BB67;" d="M155.293,343.756c-2.092-1.793-3.885-3.883-5.079-6.275c-13.887-13.887-28.689-48.94-28.689-82.478
		c0-2.987,0-5.977,0.299-8.965L0,253.211v1.793c0,62.754,24.704,120.132,62.656,164.657v0.299
		c3.287,3.586,6.573,7.471,10.159,10.758c23.132,17.008,55.016,15.811,77.399-6.575
		C169.598,404.762,175.528,369.055,155.293,343.756z"/>
</g>
<path style="fill:#0CA656;" d="M390.475,252.612v2.392c0,31.377-10.758,60.365-28.689,83.076c-0.597,0.597-1.494,1.494-2.092,2.39
	c-22.909,24.258-19.106,62.478,2.092,83.673c20.476,20.479,55.329,23.731,79.192,4.782c2.987-2.989,5.977-6.575,8.965-9.862
	C487.297,374.836,512,317.461,512,255.004v-5.977L390.475,252.612z"/>
<path style="fill:#32D736;" d="M511.103,233.489C500.046,103.496,388.981,0.996,256,0.996C123.617,0.996,12.85,102.6,0.897,231.694
	C0.299,238.868,0,246.039,0,253.211c6.573,26.596,33.37,46.618,61.759,46.618c30.781,0,56.779-23.607,60.065-53.79
	c0.299-1.494,0.299-2.989,0.299-4.782c6.873-67.833,64.248-120.727,133.877-120.727c68.432,0,124.612,50.503,133.28,116.546
	c0,0,0,0,0,0.297c0.597,5.081,1.194,10.161,1.194,15.24c5.977,26.896,31.078,47.217,59.767,47.217
	c29.883,0,57.275-22.114,61.759-50.802C511.701,243.947,511.401,238.568,511.103,233.489z"/>
<path style="fill:#10BB67;" d="M512,249.027c-4.483,28.689-31.875,50.802-61.759,50.802c-28.689,0-53.79-20.321-59.767-47.217
	c0-5.079-0.599-10.159-1.194-15.24c0-0.297,0-0.297,0-0.297c-8.668-66.043-64.849-116.546-133.28-116.546V0.996
	c132.981,0,244.046,102.5,255.103,232.493C511.401,238.568,511.701,243.947,512,249.027z"/>
<path style="fill:#E50027;" d="M399.098,26.152c-13.278-8.186-29.591-8.974-43.614-1.955l-54.66,36.566l-14.942,12.464v62.349
	l14.942,14.836l54.659,36.566c13.954,6.993,30.274,6.274,43.614-1.955c13.308-8.23,21.26-22.485,21.26-38.142V64.294
	C420.358,48.637,412.406,34.382,399.098,26.152z"/>
<path style="fill:#FD003A;" d="M211.175,60.763l-54.659-36.566c-13.993-7.004-30.307-6.26-43.614,1.955
	c-13.308,8.23-21.26,22.485-21.26,38.142v82.587c0,15.657,7.952,29.912,21.26,38.142c13.34,8.23,29.658,8.949,43.614,1.955
	l54.659-36.566l14.942-11.218V74.112L211.175,60.763z"/>
<path style="fill:#E50027;" d="M226.117,120.529H166.35c-8.259,0-14.942-6.683-14.942-14.942s6.683-14.942,14.942-14.942h59.767
	c8.259,0,14.942,6.683,14.942,14.942S234.375,120.529,226.117,120.529z"/>
<path style="fill:#C1001F;" d="M345.65,120.529h-59.767c-8.259,0-14.942-6.683-14.942-14.942s6.683-14.942,14.942-14.942h59.767
	c8.259,0,14.942,6.683,14.942,14.942S353.909,120.529,345.65,120.529z"/>
<path style="fill:#FEA832;" d="M211.175,60.763v89.65h89.65v-89.65H211.175z"/>
<rect x="256" y="60.763" style="fill:#FE9923;" width="44.825" height="89.65"/>
<g>
</g>
<g>
</g>
<g>
</g>
<g>
</g>
<g>
</g>
<g>
</g>
<g>
</g>
<g>
</g>
<g>
</g>
<g>
</g>
<g>
</g>
<g>
</g>
<g>
</g>
<g>
</g>
<g>
</g>
</svg>
