<?xml version="1.0" encoding="iso-8859-1"?>
<!-- Generator: Adobe Illustrator 19.0.0, SVG Export Plug-In . SVG Version: 6.00 Build 0)  -->
<svg version="1.1" id="Capa_1" xmlns="http://www.w3.org/2000/svg" xmlns:xlink="http://www.w3.org/1999/xlink" x="0px" y="0px"
	 viewBox="0 0 511.999 511.999" style="enable-background:new 0 0 511.999 511.999;" xml:space="preserve">
<path style="fill:#FEDB41;" d="M481.933,167.026v254.925H30.066V167.026l45.887-13.496l45.285,79.177
	c3.899,6.897,10.198,7.798,13.196,7.498c2.7,0,9.297-0.601,13.196-7.798l60.883-112.467h94.971l60.883,112.467
	c3.899,7.198,11.397,8.099,13.196,7.798c2.698,0,9.297-0.601,13.196-7.498l45.285-79.177L481.933,167.026z"/>
<path style="fill:#FFCC33;" d="M481.933,167.026v254.925H255.999V119.94h47.486l60.883,112.467
	c3.899,7.198,11.397,8.099,13.196,7.798c2.698,0,9.297-0.601,13.196-7.498l45.285-79.177L481.933,167.026z"/>
<path style="fill:#1BD9DE;" d="M178.522,370.365l-29.991-59.982c-2.7-5.098-8.099-7.798-13.496-7.798
	c-5.397,0-10.797,2.7-13.496,7.798l-29.991,59.982c-2.099,4.199-2.099,8.997,0,13.196l29.991,59.982
	c2.7,5.1,7.798,8.399,13.496,8.399c5.698,0,10.797-3.299,13.496-8.399l29.991-59.982
	C180.622,379.361,180.622,374.564,178.522,370.365z"/>
<path style="fill:#FEDB41;" d="M510.424,490.329l-29.991-59.982c-2.7-5.098-7.798-8.397-13.496-8.397H45.062
	c-5.698,0-10.797,3.299-13.496,8.397L1.575,490.329c-2.099,4.5-2.099,10.198,0.601,14.397c2.998,4.498,7.798,7.198,12.896,7.198
	h481.858c5.097,0,9.898-2.7,12.896-7.198C512.524,500.526,512.524,494.828,510.424,490.329z"/>
<path style="fill:#14B7BF;" d="M420.451,370.365l-29.991-59.982c-2.7-5.098-8.099-7.798-13.496-7.798s-10.797,2.7-13.496,7.798
	l-29.991,59.982c-2.099,4.199-2.099,8.997,0,13.196l29.991,59.982c2.7,5.1,7.798,8.399,13.496,8.399s10.797-3.299,13.496-8.399
	l29.991-59.982C422.55,379.361,422.55,374.564,420.451,370.365z"/>
<path style="fill:#FFCC33;" d="M509.824,504.726c-2.998,4.498-7.798,7.198-12.896,7.198H255.999v-89.973h210.938
	c5.698,0,10.797,3.299,13.496,8.397l29.991,59.982C512.524,494.828,512.524,500.526,509.824,504.726z"/>
<path style="fill:#FEA832;" d="M255.999,0.075c-41.388,0-75.978,35.59-75.978,76.977s34.59,74.978,75.978,74.978
	s75.978-33.59,75.978-74.978S297.387,0.075,255.999,0.075z"/>
<path style="fill:#FE9923;" d="M466.937,182.021c-24.807,0-44.987-20.18-44.987-44.987s20.18-44.987,44.987-44.987
	c24.807,0,44.987,20.18,44.987,44.987S491.744,182.021,466.937,182.021z"/>
<path style="fill:#FEA832;" d="M45.062,182.021c-24.807,0-44.987-20.18-44.987-44.987s20.18-44.987,44.987-44.987
	s44.987,20.18,44.987,44.987S69.868,182.021,45.062,182.021z"/>
<path style="fill:#FE318F;" d="M329.577,278.592l-60.982-89.973c-2.998-4.199-7.798-6.297-12.595-6.297
	c-4.798,0-9.597,2.097-12.595,6.297l-60.982,89.973c-3.3,5.1-3.3,11.697,0,16.795l60.982,89.973
	c2.998,4.199,7.498,6.599,12.595,6.599c5.098,0,9.597-2.4,12.595-6.599l60.982-89.973
	C332.877,290.288,332.877,283.691,329.577,278.592z"/>
<path style="fill:#FEA832;" d="M511.924,421.951c0,16.495-13.496,29.991-29.991,29.991H30.066
	c-16.495,0-29.991-13.496-29.991-29.991c0-16.495,13.496-29.991,29.991-29.991h451.867
	C498.427,391.959,511.924,405.455,511.924,421.951z"/>
<g>
	<path style="fill:#FE9923;" d="M511.924,421.951c0,16.495-13.496,29.991-29.991,29.991H255.999v-59.982h225.933
		C498.427,391.959,511.924,405.455,511.924,421.951z"/>
	<path style="fill:#FE9923;" d="M331.977,77.052c0,41.388-34.59,74.978-75.978,74.978V0.075
		C297.387,0.075,331.977,35.664,331.977,77.052z"/>
</g>
<g>
	<path style="fill:#FD0F7F;" d="M329.577,295.387l-60.982,89.973c-2.998,4.199-7.498,6.599-12.595,6.599V182.321
		c4.798,0,9.597,2.097,12.595,6.297l60.982,89.973C332.877,283.691,332.877,290.288,329.577,295.387z"/>
	<path style="fill:#FD0F7F;" d="M510.424,310.382L480.433,250.4c-2.7-5.098-8.099-7.798-13.496-7.798
		c-5.397,0-10.797,2.7-13.496,7.798l-29.991,59.982c-2.099,4.199-2.099,8.997,0,13.196l29.991,59.982
		c2.7,5.1,7.798,8.399,13.496,8.399s10.797-3.299,13.496-8.399l29.991-59.982C512.524,319.379,512.524,314.581,510.424,310.382z"/>
</g>
<path style="fill:#FE318F;" d="M88.549,310.382L58.558,250.4c-2.7-5.098-8.099-7.798-13.496-7.798s-10.797,2.7-13.496,7.798
	L1.575,310.382c-2.099,4.199-2.099,8.997,0,13.196l29.991,59.982c2.7,5.1,7.798,8.399,13.496,8.399s10.797-3.299,13.496-8.399
	l29.991-59.982C90.648,319.379,90.648,314.581,88.549,310.382z"/>
<g>
</g>
<g>
</g>
<g>
</g>
<g>
</g>
<g>
</g>
<g>
</g>
<g>
</g>
<g>
</g>
<g>
</g>
<g>
</g>
<g>
</g>
<g>
</g>
<g>
</g>
<g>
</g>
<g>
</g>
</svg>
