<?xml version="1.0" encoding="iso-8859-1"?>
<!-- Generator: Adobe Illustrator 19.0.0, SVG Export Plug-In . SVG Version: 6.00 Build 0)  -->
<svg version="1.1" id="Capa_1" xmlns="http://www.w3.org/2000/svg" xmlns:xlink="http://www.w3.org/1999/xlink" x="0px" y="0px"
	 viewBox="0 0 512 512" style="enable-background:new 0 0 512 512;" xml:space="preserve">
<path style="fill:#8DD83D;" d="M393.158,78.109v20.33c0,26.581-24.138,16.127-28.014,14.276l-75.979-37.283l0,0l9.469,4.647
	c8.392,7.156,16.505,15.896,23.904,24.883c67.023,26.572,114.544,92.048,114.544,168.415c0,99.847-81.233,181.08-181.08,181.08
	s-181.08-81.233-181.08-181.08c0-76.364,47.517-141.837,114.536-168.412c7.396-8.984,15.503-17.72,23.889-24.874l-66.484,32.623
	c-3.876,1.851-28.016,12.305-28.016-14.276v-20.33C-3.055,164.125-16.972,337.789,87.313,442.07
	c93.23,93.234,244.138,93.247,337.381,0C529.215,337.553,514.753,163.908,393.158,78.109z"/>
<path style="fill:#5CCC2E;" d="M38.041,273.379c0-68.808,28.966-133.146,80.807-178.964V78.109
	C56.39,122.181,17.439,193.574,17.439,273.379c0,135.413,112.467,244.106,248.865,238.334
	C140.184,506.39,38.041,402.722,38.041,273.379z"/>
<path style="fill:#3BBC56;" d="M389.827,111.483c-6.756,9.146-21.703,2.656-24.683,1.233l-75.979-37.283l9.469,4.647
	c8.392,7.156,16.505,15.896,23.904,24.883c67.023,26.572,114.544,92.048,114.544,168.415c0,99.847-81.233,181.08-181.08,181.08
	s-181.08-81.233-181.08-181.08c0-76.364,47.517-141.837,114.536-168.412c7.396-8.984,15.503-17.72,23.889-24.874l-66.484,32.623
	c-2.98,1.422-17.928,7.913-24.685-1.233c-46.586,38.574-76.316,96.828-76.316,161.896c0,115.872,94.269,210.14,210.14,210.14
	s210.14-94.268,210.14-210.14C466.143,208.311,436.413,150.057,389.827,111.483z"/>
<g>
	<path style="fill:#EA473B;" d="M222.612,47.666c0-2.266,0.48-4.419,1.333-6.372l-76.783-37.68
		c-3.919-1.87-28.314-12.438-28.314,14.427c0,25.293,0,56.137,0,81.43c0,26.861,24.394,16.296,28.314,14.425l76.783-37.678
		C222.219,72.263,222.612,71.807,222.612,47.666z"/>
	<path style="fill:#EA473B;" d="M367.762,3.614l-76.788,37.682c1.754,4.016,1.336,4.681,1.336,28.549
		c0,2.268-0.483,4.419-1.336,6.374l76.788,37.678c3.916,1.87,28.311,12.436,28.311-14.425c0-25.289,0-56.141,0-81.43
		C396.072-8.824,371.677,1.744,367.762,3.614z"/>
</g>
<path style="fill:#D63322;" d="M139.966,99.471c0-25.289,0-56.141,0-81.43c0-8.013,2.177-12.676,5.327-15.254
	c-6.912-2.85-26.444-8.791-26.444,15.254c0,25.293,0,56.137,0,81.43c0,24.041,19.532,18.104,26.444,15.251
	C142.143,112.146,139.966,107.482,139.966,99.471z"/>
<path style="fill:#EA473B;" d="M238.542,83.661c-6.532,0-12.138-3.931-14.597-9.554l-9.59,4.705
	c-22.16,18.904-42.408,48.727-52.846,65.424c0,0.002-0.002,0.002-0.002,0.004c-7.681,11.851,2.828,17.078,2.891,17.111
	c15.091,6.94,34.757,15.98,37.094,17.055c13.471,6.196,16.473-6.41,16.473-6.41h0.006c12.769-45.737,32.056-78.998,37.81-88.336
	L238.542,83.661L238.542,83.661z"/>
<path style="fill:#D63322;" d="M180.296,162.244c0-0.003,0.002-0.003,0.002-0.004c10.086-19.975,29.151-54.562,51.715-79.984
	c-3.596-1.621-6.486-4.531-8.067-8.148l-9.59,4.705c-22.16,18.904-42.408,48.727-52.846,65.424c0,0.002-0.002,0.002-0.002,0.004
	c-7.681,11.851,2.828,17.078,2.891,17.111l13.776,6.332C178.576,166.031,179.255,164.222,180.296,162.244z"/>
<path style="fill:#EA473B;" d="M300.544,78.804l-9.571-4.696c-2.462,5.622-8.066,9.554-14.599,9.554h-17.237
	c5.746,9.321,24.98,42.493,37.749,88.121h0.005c3.586,11.993,12.35,8.551,12.358,8.548l0.253-0.119
	c0.115-0.051,0.272-0.122,0.462-0.211l36.691-16.872c0.339-0.153,0.675-0.313,1.007-0.465c12.205-5.612,8.287-14.178,7.064-16.304
	C351.905,141.45,327.179,101.516,300.544,78.804z"/>
<g>
	<path style="fill:#D63322;" d="M283.633,81.904c-4.315,2.215-5.876,1.757-24.495,1.757c5.746,9.321,24.98,42.493,37.749,88.121
		h0.005c3.586,11.993,12.35,8.551,12.358,8.548l0.253-0.119c0.115-0.051,0.272-0.122,0.462-0.211l11.91-5.476
		C309.843,133.406,293.937,100.726,283.633,81.904z"/>
	<path style="fill:#D63322;" d="M276.374,31.207h-37.832c-9.075,0-16.459,7.385-16.459,16.459v22.178
		c0,9.075,7.383,16.456,16.459,16.456h37.832c9.078,0,16.463-7.382,16.463-16.456V47.666
		C292.838,38.592,285.452,31.207,276.374,31.207z"/>
</g>
<path style="fill:#C62A1E;" d="M243.202,69.845V47.666c0-9.075,7.383-16.459,16.458-16.459h-21.117
	c-9.075,0-16.459,7.385-16.459,16.459v22.178c0,9.075,7.383,16.456,16.459,16.456h21.117
	C250.584,86.301,243.202,78.919,243.202,69.845z"/>
<g>
</g>
<g>
</g>
<g>
</g>
<g>
</g>
<g>
</g>
<g>
</g>
<g>
</g>
<g>
</g>
<g>
</g>
<g>
</g>
<g>
</g>
<g>
</g>
<g>
</g>
<g>
</g>
<g>
</g>
</svg>
